<svg width="40" height="40" viewBox="0 0 40 40" fill="none" xmlns="http://www.w3.org/2000/svg">
<path d="M40 20C40 31.0457 31.0457 40 20 40C8.9543 40 0 31.0457 0 20C0 8.9543 8.9543 0 20 0C31.0457 0 40 8.9543 40 20Z" fill="#ADB5BD"/>
<path d="M20 22.5C24.1421 22.5 27.5 19.1421 27.5 15C27.5 10.8579 24.1421 7.5 20 7.5C15.8579 7.5 12.5 10.8579 12.5 15C12.5 19.1421 15.8579 22.5 20 22.5Z" fill="white"/>
<path d="M20 37C25.6112 37 30.5875 34.2814 33.6836 30.0894C31.0895 26.8829 26.6042 25 22 25H18C13.3958 25 8.91052 26.8829 6.31641 30.0894C9.41248 34.2814 14.3888 37 20 37Z" fill="white"/>
</svg>
